Patient4_TMGait_0pt7_02_left_05_GRF.mot
version=1
nRows=65
nColumns=19
inDegrees=no
endheader
time	F1x	F1y	F1z	M1x	M1y	M1z	F2x	F2y	F2z	M2x	M2y	M2z	EC1x	EC1y	EC1z	EC2x	EC2y	EC2z
5.34	-22.066	-2.5571	-6.0425	3.9244	-4.3083	-10.9397	-20.2496	731.1	-94.8628	301.1006	101.8304	832.0628	-0.0592	0.0182	-0.0073	-0.0462	0.0165	0.9585
5.3512	-15.0055	-0.70379	-4.2118	2.2975	-2.8718	-6.0326	-25.7693	736.6723	-86.2352	300.6954	98.6229	835.9396	-0.0592	0.0182	-0.0073	-0.0462	0.0165	0.9585
5.3624	-9.0234	0.86013	-2.5531	0.90271	-1.7397	-1.9483	-30.6039	744.3188	-78.6715	301.5191	95.6385	841.2284	-0.0592	0.0182	-0.0073	-0.0462	0.0165	0.9585
5.3736	-4.4649	2.0714	-1.2393	-0.18056	-0.91447	1.1255	-34.3785	753.6062	-72.6415	303.5346	93.0075	847.4967	-0.0592	0.0182	-0.0073	-0.0462	0.0165	0.9585
5.3849	-1.3295	2.9444	-0.27407	-0.95066	-0.39887	3.2496	-36.9126	763.6896	-68.132	306.4069	90.6411	853.9074	-0.0592	0.0182	-0.0073	-0.0462	0.0165	0.9585
5.3961	0.57611	3.509	0.35948	-1.4437	-0.12199	4.5529	-38.1474	773.5097	-64.9114	309.6292	88.3843	859.4234	-0.0592	0.0182	-0.0073	-0.0462	0.0165	0.9585
5.4073	1.5505	3.8238	0.73221	-1.7126	-0.021989	5.2339	-38.1293	781.8258	-62.6413	312.6009	86.0598	862.824	-0.0592	0.0182	-0.0073	-0.0462	0.0165	0.9585
5.4185	1.8569	3.9051	0.91922	-1.8	-0.047082	5.4281	-36.9468	787.4925	-60.9686	314.7485	83.5073	863.0015	-0.0592	0.0182	-0.0073	-0.0462	0.0165	0.9585
5.4297	1.7441	3.7588	0.97061	-1.7393	-0.1354	5.2192	-34.7195	789.5312	-59.6507	315.5814	80.6655	859.0162	-0.0592	0.0182	-0.0073	-0.0462	0.0165	0.9585
5.4409	1.3967	3.338	0.95857	-1.5404	-0.27192	4.6306	-31.5844	787.3393	-58.4504	314.7774	77.4581	850.3396	-0.0592	0.0182	-0.0073	-0.0462	0.0165	0.9585
5.4521	0.95118	2.5509	0.90069	-1.1952	-0.41493	3.5749	-27.6297	780.7706	-57.2556	312.215	73.8886	836.9149	-0.0592	0.0182	-0.0073	-0.0462	0.0165	0.9585
5.4634	0.50045	1.3138	0.84396	-0.68694	-0.56488	1.9832	-22.9503	770.1164	-55.9594	307.9723	69.9416	819.1483	-0.0592	0.0182	-0.0073	-0.0462	0.0165	0.9585
5.4746	0.13663	-0.45549	0.78347	0.0013709	-0.67692	-0.24783	-17.5776	756.1076	-54.579	302.3142	65.6786	797.8932	-0.0592	0.0182	-0.0073	-0.0462	0.0165	0.9585
5.4858	-0.096462	-2.7488	0.72845	0.86192	-0.73292	-3.1022	-11.5869	739.8061	-53.1832	295.6524	61.2069	774.3498	-0.0592	0.0182	-0.0073	-0.0462	0.0165	0.9585
5.497	-0.090027	-5.4397	0.64969	1.8417	-0.66164	-6.4269	-5.063	722.4607	-51.9036	288.4835	56.6949	749.8807	-0.0592	0.0182	-0.0073	-0.0462	0.0165	0.9585
5.5082	0.21864	-8.1584	0.51171	2.8089	-0.39554	-9.7691	1.8333	705.4084	-50.91	281.3398	52.3661	725.9228	-0.0592	0.0182	-0.0073	-0.0462	0.0165	0.9585
5.5194	0.96199	-10.2068	0.26832	3.516	0.16776	-12.3075	8.8863	689.8577	-50.3304	274.72	48.4203	703.7484	-0.0592	0.0182	-0.0073	-0.0462	0.0165	0.9585
5.5306	2.2444	-10.4525	-0.14344	3.5642	1.1395	-12.6673	15.8486	676.8562	-50.2608	269.0609	45.0358	684.4533	-0.0592	0.0182	-0.0073	-0.0462	0.0165	0.9585
5.5419	4.1645	-7.2688	-0.76111	2.3818	2.5997	-8.8878	22.4522	667.0723	-50.6925	264.6615	42.2979	668.7071	-0.0592	0.0182	-0.0073	-0.0462	0.0165	0.9585
5.5531	6.7442	1.4775	-1.6323	-0.77738	4.6038	1.6559	28.4336	660.7528	-51.5675	261.6513	40.2417	656.7504	-0.0592	0.0182	-0.0073	-0.0462	0.0165	0.9585
5.5643	9.8619	18.261	-2.7298	-6.775	7.0767	21.9828	33.6134	657.6471	-52.7281	259.9657	38.7826	648.3222	-0.0592	0.0182	-0.0073	-0.0462	0.0165	0.9585
5.5755	13.1401	45.6036	-3.9867	-16.4781	9.7906	55.2027	37.87	656.9793	-53.9694	259.3286	37.7671	642.6534	-0.0592	0.0182	-0.0073	-0.0462	0.0165	0.9585
5.5867	15.8847	85.3802	-5.187	-30.5204	12.2258	103.6673	41.1951	657.4759	-55.0218	259.253	36.947	638.4951	-0.0592	0.0182	-0.0073	-0.0462	0.0165	0.9585
5.5979	16.8945	137.866	-5.9752	-48.9597	13.5041	167.7829	43.6324	657.342	-55.5959	259.0398	36.0347	634.1175	-0.0592	0.0182	-0.0073	-0.0462	0.0165	0.9585
5.6091	14.5612	200.4129	-5.7421	-70.8212	12.3149	244.3948	45.2695	654.4472	-55.4262	257.8401	34.7548	627.5044	-0.0592	0.0182	-0.0073	-0.0462	0.0165	0.9585
5.6204	7.9191	267.155	-3.6975	-93.9805	7.3638	326.4089	46.2089	646.4711	-54.3172	254.7226	32.8957	616.4684	-0.0592	0.0182	-0.0073	-0.0462	0.0165	0.9585
5.6316	-1.7829	329.7418	1.1279	-115.4692	-2.0403	403.4892	46.542	631.3144	-52.2336	248.8368	30.4033	599.0499	-0.0592	0.0182	-0.0073	-0.0462	0.0165	0.9585
5.6428	-12.1647	381.0129	8.8906	-132.826	-15.142	466.5277	46.3529	607.5759	-49.2898	239.6024	27.373	573.9364	-0.0592	0.0182	-0.0073	-0.0462	0.0165	0.9585
5.654	-21.6547	419.5396	18.2219	-145.6128	-29.7687	513.3977	45.6298	574.8913	-45.7109	226.8356	24.0337	540.8249	-0.0592	0.0182	-0.0073	-0.0462	0.0165	0.9585
5.6652	-29.6857	448.1306	27.9061	-154.8874	-44.2073	547.4278	44.3694	533.8443	-41.764	210.7339	20.6493	500.29	-0.0592	0.0182	-0.0073	-0.0462	0.0165	0.9585
5.6764	-35.9938	471.1829	36.9057	-162.2594	-57.1467	573.9827	42.5193	485.7528	-37.6842	191.7957	17.4564	453.5963	-0.0592	0.0182	-0.0073	-0.0462	0.0165	0.9585
5.6876	-40.6776	492.4026	44.5021	-169.0913	-67.743	597.7528	40.0452	432.3699	-33.5623	170.717	14.5475	402.3922	-0.0592	0.0182	-0.0073	-0.0462	0.0165	0.9585
5.6989	-43.7706	514.0675	50.173	-176.2271	-75.41	621.5121	36.8712	375.7908	-29.4124	148.3369	11.9574	348.6568	-0.0592	0.0182	-0.0073	-0.0462	0.0165	0.9585
5.7101	-45.368	537.0727	53.882	-183.9805	-80.1435	646.3888	32.9505	318.2313	-25.2341	125.5582	9.6927	294.4493	-0.0592	0.0182	-0.0073	-0.0462	0.0165	0.9585
5.7213	-45.6173	561.5028	55.9636	-192.3471	-82.4087	672.4878	28.3362	262.0248	-21.1124	103.3169	7.7933	241.9243	-0.0592	0.0182	-0.0073	-0.0462	0.0165	0.9585
5.7325	-44.7998	587.0566	56.9796	-201.1589	-82.976	699.5455	23.2712	209.3421	-17.1809	82.4824	6.2687	193.0067	-0.0592	0.0182	-0.0073	-0.0462	0.0165	0.9585
5.7437	-43.2158	613.1956	57.5603	-210.1677	-82.6978	727.0511	18.1262	162.0196	-13.6049	63.7787	5.1079	149.299	-0.0592	0.0182	-0.0073	-0.0462	0.0165	0.9585
5.7549	-41.2357	639.2442	58.1571	-219.0875	-82.2475	754.2735	13.3597	121.2662	-10.5052	47.6797	4.2344	111.7981	-0.0592	0.0182	-0.0073	-0.0462	0.0165	0.9585
5.7661	-39.1661	664.2638	59.1872	-227.5684	-82.2122	780.163	9.2784	87.5298	-7.934	34.3613	3.5604	80.8239	-0.0592	0.0182	-0.0073	-0.0462	0.0165	0.9585
5.7774	-37.2391	687.5572	60.719	-235.3702	-82.7597	803.8667	6.0481	60.6306	-5.8793	23.7514	3.0056	56.144	-0.0592	0.0182	-0.0073	-0.0462	0.0165	0.9585
5.7886	-35.4625	708.8824	62.5528	-242.4327	-83.6845	825.059	3.606	39.9201	-4.2679	15.5976	2.5229	37.1443	-0.0592	0.0182	-0.0073	-0.0462	0.0165	0.9585
5.7998	-33.7505	728.3431	64.3438	-248.8207	-84.588	843.8217	1.8368	24.5748	-3.024	9.5697	2.0982	23.0606	-0.0592	0.0182	-0.0073	-0.0462	0.0165	0.9585
5.811	-32.0633	746.014	65.8362	-254.5805	-85.1771	860.2055	0.59401	13.7118	-2.0522	5.3129	1.7059	13.0944	-0.0592	0.0182	-0.0073	-0.0462	0.0165	0.9585
5.8222	-30.3597	761.8128	67.0288	-259.6855	-85.4316	874.1567	-0.20524	6.4735	-1.2965	2.4851	1.3325	6.4577	-0.0592	0.0182	-0.0073	-0.0462	0.0165	0.9585
5.8334	-28.6279	775.4919	68.0302	-264.0433	-85.463	885.448	-0.63773	2.1138	-0.71736	0.78491	0.97254	2.4748	-0.0592	0.0182	-0.0073	-0.0462	0.0165	0.9585
5.8446	-26.8909	786.638	69.0455	-267.5011	-85.498	893.6918	-0.80906	-0.1107	-0.31368	-0.080207	0.66755	0.46822	-0.0592	0.0182	-0.0073	-0.0462	0.0165	0.9585
5.8559	-25.1332	794.8626	70.1551	-269.9228	-85.6213	898.5162	-0.81891	-0.8435	-0.06479	-0.36913	0.43945	-0.14005	-0.0592	0.0182	-0.0073	-0.0462	0.0165	0.9585
5.8671	-23.3227	799.9149	71.3425	-271.2311	-85.8062	899.6941	-0.73938	-0.67479	0.077116	-0.31092	0.27501	0.086281	-0.0592	0.0182	-0.0073	-0.0462	0.0165	0.9585
5.8783	-21.3856	801.8008	72.5196	-271.4423	-85.9292	897.2682	-0.63024	-0.033137	0.13958	-0.073724	0.17269	0.75699	-0.0592	0.0182	-0.0073	-0.0462	0.0165	0.9585
5.8895	-19.2533	800.7587	73.5411	-270.6563	-85.817	891.5316	-0.50863	0.77262	0.1615	0.22603	0.10694	1.5688	-0.0592	0.0182	-0.0073	-0.0462	0.0165	0.9585
5.9007	-16.8954	797.1635	74.3657	-269.0133	-85.4094	882.9285	-0.40784	1.5561	0.15978	0.51896	0.075906	2.3528	-0.0592	0.0182	-0.0073	-0.0462	0.0165	0.9585
5.9119	-14.3215	791.4629	74.9379	-266.6707	-84.6565	872.0045	-0.30919	2.225	0.14617	0.77316	0.062896	3.0198	-0.0592	0.0182	-0.0073	-0.0462	0.0165	0.9585
5.9231	-11.6063	784.0828	75.3275	-263.7748	-83.651	859.2716	-0.23974	2.7511	0.12794	0.97838	0.06386	3.5515	-0.0592	0.0182	-0.0073	-0.0462	0.0165	0.9585
5.9344	-8.8283	775.5069	75.561	-260.4921	-82.4468	845.2742	-0.18869	3.1429	0.10101	1.1379	0.075664	3.945	-0.0592	0.0182	-0.0073	-0.0462	0.0165	0.9585
5.9456	-6.0295	766.2296	75.6824	-256.9957	-81.1051	830.5523	-0.16497	3.4255	0.069044	1.2597	0.094064	4.2333	-0.0592	0.0182	-0.0073	-0.0462	0.0165	0.9585
5.9568	-3.2478	756.7483	75.7057	-253.4625	-79.6501	815.6195	-0.16024	3.6173	0.03146	1.3519	0.11939	4.4265	-0.0592	0.0182	-0.0073	-0.0462	0.0165	0.9585
5.968	-0.48258	747.4712	75.5957	-250.0456	-78.0509	800.8948	-0.17376	3.749	-0.013468	1.425	0.15779	4.5609	-0.0592	0.0182	-0.0073	-0.0462	0.0165	0.9585
5.9792	2.2438	738.7209	75.3534	-246.8661	-76.3144	786.7054	-0.19792	3.8071	-0.067659	1.4739	0.21393	4.6134	-0.0592	0.0182	-0.0073	-0.0462	0.0165	0.9585
5.9904	4.9428	730.7373	74.9325	-244.0155	-74.3969	773.2796	-0.23784	3.7935	-0.12776	1.4931	0.28927	4.574	-0.0592	0.0182	-0.0073	-0.0462	0.0165	0.9585
6.0016	7.6421	723.7114	74.3558	-241.5592	-72.3081	760.811	-0.29121	3.6591	-0.19115	1.4607	0.37966	4.3872	-0.0592	0.0182	-0.0073	-0.0462	0.0165	0.9585
6.0129	10.4027	717.8525	73.6049	-239.5616	-70.0127	749.471	-0.36002	3.3362	-0.26399	1.3465	0.48901	3.9804	-0.0592	0.0182	-0.0073	-0.0462	0.0165	0.9585
6.0241	13.2979	713.3285	72.7145	-238.0634	-67.5169	739.4099	-0.43656	2.7216	-0.33613	1.1105	0.60275	3.2275	-0.0592	0.0182	-0.0073	-0.0462	0.0165	0.9585
6.0353	16.4201	710.3136	71.737	-237.0918	-64.8452	730.7866	-0.51252	1.6775	-0.41351	0.70165	0.7166	1.9629	-0.0592	0.0182	-0.0073	-0.0462	0.0165	0.9585
6.0465	19.817	708.8988	70.7527	-236.6386	-62.064	723.7046	-0.56501	0.083965	-0.47897	0.074242	0.80286	0.040842	-0.0592	0.0182	-0.0073	-0.0462	0.0165	0.9585
6.0577	23.5236	709.1311	69.9035	-236.6733	-59.3076	718.2467	-0.56813	-2.1445	-0.51687	-0.80372	0.83282	-2.6442	-0.0592	0.0182	-0.0073	-0.0462	0.0165	0.9585
